<?xml version="1.0" encoding="UTF-8" standalone="no"?>
<!-- Created with Inkscape (http://www.inkscape.org/) -->
<svg
   xmlns:dc="http://purl.org/dc/elements/1.1/"
   xmlns:cc="http://web.resource.org/cc/"
   xmlns:rdf="http://www.w3.org/1999/02/22-rdf-syntax-ns#"
   xmlns:svg="http://www.w3.org/2000/svg"
   xmlns="http://www.w3.org/2000/svg"
   xmlns:sodipodi="http://sodipodi.sourceforge.net/DTD/sodipodi-0.dtd"
   xmlns:inkscape="http://www.inkscape.org/namespaces/inkscape"
   width="239.98767"
   height="660.92542"
   id="svg12114"
   sodipodi:version="0.32"
   inkscape:version="0.45.1"
   sodipodi:docbase="E:\Rok\Inked\Guitars"
   sodipodi:docname="Red Special.svg"
   inkscape:output_extension="org.inkscape.output.svg.inkscape"
   version="1.0">
  <defs
     id="defs12116">
    <filter
       inkscape:collect="always"
       id="filter18958">
      <feGaussianBlur
         inkscape:collect="always"
         stdDeviation="0.094285716"
         id="feGaussianBlur18960" />
    </filter>
  </defs>
  <sodipodi:namedview
     id="base"
     pagecolor="#ffffff"
     bordercolor="#666666"
     borderopacity="1.0"
     gridtolerance="10000"
     guidetolerance="10"
     objecttolerance="10"
     inkscape:pageopacity="0.0"
     inkscape:pageshadow="2"
     inkscape:zoom="0.175"
     inkscape:cx="207.5023"
     inkscape:cy="845.85353"
     inkscape:document-units="px"
     inkscape:current-layer="layer1"
     inkscape:window-width="856"
     inkscape:window-height="639"
     inkscape:window-x="95"
     inkscape:window-y="73"
     showguides="true"
     inkscape:guide-bbox="true" />
  <metadata
     id="metadata12119">
    <rdf:RDF>
      <cc:Work
         rdf:about="">
        <dc:format>image/svg+xml</dc:format>
        <dc:type
           rdf:resource="http://purl.org/dc/dcmitype/StillImage" />
      </cc:Work>
    </rdf:RDF>
  </metadata>
  <g
     inkscape:label="Layer 1"
     inkscape:groupmode="layer"
     id="layer1"
     transform="translate(-40.099283,-55.501981)">
    <g
       id="g24804"
       transform="translate(-149.50258,-54.548237)">
      <path
         sodipodi:nodetypes="cssssscccssssscc"
         id="path15823"
         d="M 291.42857,514.32647 C 284.84414,518.61963 279.07932,527.18788 268.75,521.6479 C 255.34449,514.45805 240.05943,485.75153 230.71429,496.29075 C 219.55404,508.87701 223.64143,517.20461 226.25,525.75504 C 228.41017,532.83569 235.91681,541.67153 241.42857,555.21932 C 245.95855,566.35391 238.98297,578.40926 230.89286,587.54075 C 217.56456,602.58469 205.809,606.03766 191.42857,659.1479 C 181.21835,719.2497 231.57096,760.17316 286.42857,769.50504 C 354.3229,776.20662 417.03201,748.5306 428.92857,676.29075 C 430.99134,641.48702 412.89247,618.65193 393.92857,597.36218 C 383.83312,586.02855 371.85761,575.88816 378.92857,556.29075 C 385.63378,537.70702 385.57085,527.77303 378.57143,523.79075 C 369.97606,518.90045 364.50238,521.12254 359.28571,522.71932 C 352.0214,524.94286 346.89833,531.09965 338.21429,529.1479 C 332.78437,527.92752 329.88095,524.1479 327.14286,519.50504 L 291.42857,514.32647 z "
         style="fill:#9f2605;fill-opacity:1;fill-rule:evenodd;stroke:#000000;stroke-width:1px;stroke-linecap:butt;stroke-linejoin:miter;stroke-opacity:1" />
      <path
         sodipodi:nodetypes="ccsccssssssssccszccc"
         id="path15825"
         d="M 291.78571,530.93361 C 281.62792,536.97476 271.21529,540.46746 259.64286,532.36218 C 241.87061,514.2872 243.00533,510.27218 235.53571,509.68361 C 228.67146,509.14274 233.44072,524.96575 238.39286,534.68361 C 247.45692,550.50129 257.893,563.02612 264.82143,583.96932 C 275.04134,610.63093 274.17909,629.45994 277.32143,651.46932 C 278.61033,660.49694 285.12365,666.2345 293.92857,666.82647 C 310.41941,667.93518 325.30499,663.67273 340,665.93361 C 346.97805,667.0072 374.00439,672.61791 361.42858,699.1479 C 351.80163,719.45695 351.65201,735.77761 358.39286,741.29075 C 367.65394,748.86511 373.96094,743.88404 382.5,738.43361 C 400.0724,727.21726 404.57431,717.27587 412.5,705.93361 C 420.24166,694.85471 422.1287,679.18447 420.17857,662.54075 C 415.64244,623.82631 399.87635,622.32106 389.28572,603.96932 L 376.60714,590.3979 C 366.13737,579.73758 366.05687,566.05063 371.07143,550.57647 C 373.18467,544.05535 383.38531,530.32153 373.57143,533.07647 C 363.75755,535.83141 341.59112,546.18381 334.82143,540.57647 L 327.67857,536.29075 L 291.78571,530.93361 z "
         style="fill:#000000;fill-rule:evenodd;stroke:#000000;stroke-width:1px;stroke-linecap:butt;stroke-linejoin:miter;stroke-opacity:1" />
      <path
         style="fill:#f9e0aa;fill-opacity:1;fill-rule:evenodd;stroke:#000000;stroke-width:1px;stroke-linecap:butt;stroke-linejoin:miter;stroke-opacity:1"
         d="M 291.16071,156.38004 C 288.20233,155.95733 288.38705,153.71897 287.99662,151.81771 C 287.72776,150.50844 285.18477,149.46015 282.94729,150.42034 C 280.70981,151.38053 278.49948,154.41116 279.0467,157.17634 C 279.61168,160.03122 280.51991,162.47021 284.31113,161.78245 C 286.41707,161.40041 287.42182,158.95181 287.42182,158.95181 L 290.05488,160.10377 L 291.16071,156.38004 z "
         id="path14830"
         sodipodi:nodetypes="cssssccc" />
      <path
         sodipodi:nodetypes="cssssccc"
         id="path14832"
         d="M 295.625,134.41575 C 292.66662,133.99304 292.85134,131.75468 292.46091,129.85342 C 292.19205,128.54415 289.64906,127.49586 287.41158,128.45605 C 285.1741,129.41624 282.96377,132.44687 283.51099,135.21205 C 284.07597,138.06693 284.9842,140.50592 288.77542,139.81816 C 290.88136,139.43612 291.88611,136.98752 291.88611,136.98752 L 294.51917,138.13948 L 295.625,134.41575 z "
         style="fill:#f9e0aa;fill-opacity:1;fill-rule:evenodd;stroke:#000000;stroke-width:1px;stroke-linecap:butt;stroke-linejoin:miter;stroke-opacity:1" />
      <path
         sodipodi:nodetypes="cssssccc"
         id="path14828"
         d="M 285.80357,181.91575 C 282.84519,181.49304 283.02991,179.25468 282.63948,177.35342 C 282.37062,176.04415 279.82763,174.99586 277.59015,175.95605 C 275.35267,176.91624 273.14234,179.94687 273.68956,182.71205 C 274.25454,185.56693 275.16277,188.00592 278.95399,187.31816 C 281.05993,186.93612 282.06468,184.48752 282.06468,184.48752 L 284.69774,185.63948 L 285.80357,181.91575 z "
         style="fill:#f9e0aa;fill-opacity:1;fill-rule:evenodd;stroke:#000000;stroke-width:1px;stroke-linecap:butt;stroke-linejoin:miter;stroke-opacity:1" />
      <path
         style="fill:#f9e0aa;fill-opacity:1;fill-rule:evenodd;stroke:#000000;stroke-width:1px;stroke-linecap:butt;stroke-linejoin:miter;stroke-opacity:1"
         d="M 336.10523,182.63004 C 339.06361,182.20733 338.87889,179.96897 339.26932,178.06771 C 339.53818,176.75844 342.08117,175.71015 344.31865,176.67034 C 346.55613,177.63053 348.76646,180.66116 348.21924,183.42634 C 347.65426,186.28122 346.74603,188.72021 342.95481,188.03245 C 340.84887,187.65041 339.84412,185.20181 339.84412,185.20181 L 337.21106,186.35377 L 336.10523,182.63004 z "
         id="path14838"
         sodipodi:nodetypes="cssssccc" />
      <path
         sodipodi:nodetypes="cssssccc"
         id="path14836"
         d="M 331.81952,158.88004 C 334.7779,158.45733 334.59318,156.21897 334.98361,154.31771 C 335.25247,153.00844 337.79546,151.96015 340.03294,152.92034 C 342.27042,153.88053 344.48075,156.91116 343.93353,159.67634 C 343.36855,162.53122 342.46032,164.97021 338.6691,164.28245 C 336.56316,163.90041 335.55841,161.45181 335.55841,161.45181 L 332.92535,162.60377 L 331.81952,158.88004 z "
         style="fill:#f9e0aa;fill-opacity:1;fill-rule:evenodd;stroke:#000000;stroke-width:1px;stroke-linecap:butt;stroke-linejoin:miter;stroke-opacity:1" />
      <path
         style="fill:#f9e0aa;fill-opacity:1;fill-rule:evenodd;stroke:#000000;stroke-width:1px;stroke-linecap:butt;stroke-linejoin:miter;stroke-opacity:1"
         d="M 326.99809,134.77289 C 329.95647,134.35018 329.77175,132.11182 330.16218,130.21056 C 330.43104,128.90129 332.97403,127.853 335.21151,128.81319 C 337.44899,129.77338 339.65932,132.80401 339.1121,135.56919 C 338.54712,138.42407 337.63889,140.86306 333.84767,140.1753 C 331.74173,139.79326 330.73698,137.34466 330.73698,137.34466 L 328.10392,138.49662 L 326.99809,134.77289 z "
         id="path14834"
         sodipodi:nodetypes="cssssccc" />
      <path
         sodipodi:nodetypes="ccssssccc"
         id="path14824"
         d="M 295.21708,229.08786 L 295.21708,210.1475 C 290.84894,202.59907 282.49399,197.22115 285.11556,181.86323 C 295.09334,123.66297 299.98777,116.26558 303.80338,113.17285 C 308.16954,109.63388 316.82478,109.71839 319.71328,113.17285 C 324.59922,119.01612 334.87123,156.71252 337.13842,186.40892 C 338.13198,199.42289 329.69333,204.87965 326.02673,212.1678 L 325.77419,229.84548 L 295.21708,229.08786 z "
         style="fill:#741b00;fill-opacity:1;fill-rule:evenodd;stroke:#000000;stroke-width:1px;stroke-linecap:butt;stroke-linejoin:miter;stroke-opacity:1" />
      <path
         sodipodi:nodetypes="ccssc"
         id="path15821"
         d="M 301.96429,231.46932 L 319.28571,231.46932 C 319.28571,231.46932 317.41458,208.931 313.75,202.00504 C 312.4376,199.52463 309.3292,197.77392 307.32143,202.00504 C 303.93154,209.14882 301.96429,231.46932 301.96429,231.46932 z "
         style="fill:#2d1803;fill-opacity:1;fill-rule:evenodd;stroke:#000000;stroke-width:1px;stroke-linecap:butt;stroke-linejoin:miter;stroke-opacity:1" />
      <path
         sodipodi:nodetypes="ccccc"
         id="path12826"
         d="M 325.73666,229.68836 L 326.43511,548.08301 L 293.60821,548.08301 L 295.35432,229.33262 L 325.73666,229.68836 z "
         style="fill:#23040a;fill-opacity:1;fill-rule:evenodd;stroke:#000000;stroke-width:0.98691642px;stroke-linecap:butt;stroke-linejoin:miter;stroke-opacity:1" />
      <path
         sodipodi:nodetypes="cc"
         id="path12828"
         d="M 295.53571,234.68361 L 325.35714,234.86218"
         style="fill:#ffc97c;fill-opacity:1;fill-rule:evenodd;stroke:#f5c278;stroke-width:1.79999995;stroke-linecap:round;stroke-linejoin:round;stroke-miterlimit:4;stroke-dasharray:none;stroke-opacity:1" />
      <path
         style="fill:#ffc97c;fill-opacity:1;fill-rule:evenodd;stroke:#f5c278;stroke-width:1.7930485;stroke-linecap:round;stroke-linejoin:round;stroke-miterlimit:4;stroke-dasharray:none;stroke-opacity:1"
         d="M 296.34215,257.89443 L 324.8249,258.07994"
         id="path14776"
         sodipodi:nodetypes="cc" />
      <path
         sodipodi:nodetypes="cc"
         id="path14778"
         d="M 296.21622,280.03762 L 324.82457,280.22247"
         style="fill:#ffc97c;fill-opacity:1;fill-rule:evenodd;stroke:#f5c278;stroke-width:1.79372382;stroke-linecap:round;stroke-linejoin:round;stroke-miterlimit:4;stroke-dasharray:none;stroke-opacity:1" />
      <path
         style="fill:#ffc97c;fill-opacity:1;fill-rule:evenodd;stroke:#f5c278;stroke-width:1.81713414;stroke-linecap:round;stroke-linejoin:round;stroke-miterlimit:4;stroke-dasharray:none;stroke-opacity:1"
         d="M 295.36571,300.93076 L 324.81286,301.11505"
         id="path14780"
         sodipodi:nodetypes="cc" />
      <path
         sodipodi:nodetypes="cc"
         id="path14782"
         d="M 295.67964,320.39025 L 324.79479,320.58414"
         style="fill:#ffc97c;fill-opacity:1;fill-rule:evenodd;stroke:#f5c278;stroke-width:1.85327113;stroke-linecap:round;stroke-linejoin:round;stroke-miterlimit:4;stroke-dasharray:none;stroke-opacity:1" />
      <path
         style="fill:#ffc97c;fill-opacity:1;fill-rule:evenodd;stroke:#f5c278;stroke-width:1.85327113;stroke-linecap:round;stroke-linejoin:round;stroke-miterlimit:4;stroke-dasharray:none;stroke-opacity:1"
         d="M 295.67964,338.78311 L 324.79479,338.977"
         id="path14784"
         sodipodi:nodetypes="cc" />
      <path
         sodipodi:nodetypes="cc"
         id="path14786"
         d="M 295.55372,356.10489 L 324.79444,356.29808"
         style="fill:#ffc97c;fill-opacity:1;fill-rule:evenodd;stroke:#f5c278;stroke-width:1.85396016;stroke-linecap:round;stroke-linejoin:round;stroke-miterlimit:4;stroke-dasharray:none;stroke-opacity:1" />
      <path
         style="fill:#ffc97c;fill-opacity:1;fill-rule:evenodd;stroke:#f5c278;stroke-width:1.85396016;stroke-linecap:round;stroke-linejoin:round;stroke-miterlimit:4;stroke-dasharray:none;stroke-opacity:1"
         d="M 295.55372,372.35489 L 324.79444,372.54808"
         id="path14788"
         sodipodi:nodetypes="cc" />
      <path
         sodipodi:nodetypes="cc"
         id="path14790"
         d="M 295.42779,387.89094 L 324.7941,388.08345"
         style="fill:#ffc97c;fill-opacity:1;fill-rule:evenodd;stroke:#f5c278;stroke-width:1.85464442;stroke-linecap:round;stroke-linejoin:round;stroke-miterlimit:4;stroke-dasharray:none;stroke-opacity:1" />
      <path
         style="fill:#ffc97c;fill-opacity:1;fill-rule:evenodd;stroke:#f5c278;stroke-width:1.85532379;stroke-linecap:round;stroke-linejoin:round;stroke-miterlimit:4;stroke-dasharray:none;stroke-opacity:1"
         d="M 295.30186,403.24842 L 324.79376,403.44025"
         id="path14792"
         sodipodi:nodetypes="cc" />
      <path
         sodipodi:nodetypes="cc"
         id="path14794"
         d="M 295.30618,416.99336 L 325.47309,417.19531"
         style="fill:#ffc97c;fill-opacity:1;fill-rule:evenodd;stroke:#f5c278;stroke-width:1.92523623;stroke-linecap:round;stroke-linejoin:round;stroke-miterlimit:4;stroke-dasharray:none;stroke-opacity:1" />
      <path
         style="fill:#ffc97c;fill-opacity:1;fill-rule:evenodd;stroke:#f5c278;stroke-width:1.92661643;stroke-linecap:round;stroke-linejoin:round;stroke-miterlimit:4;stroke-dasharray:none;stroke-opacity:1"
         d="M 295.05433,430.20834 L 325.4724,430.40891"
         id="path14796"
         sodipodi:nodetypes="cc" />
      <path
         sodipodi:nodetypes="cc"
         id="path14798"
         d="M 295.18026,442.52942 L 325.47275,442.73069"
         style="fill:#ffc97c;fill-opacity:1;fill-rule:evenodd;stroke:#f5c278;stroke-width:1.92592871;stroke-linecap:round;stroke-linejoin:round;stroke-miterlimit:4;stroke-dasharray:none;stroke-opacity:1" />
      <path
         style="fill:#ffc97c;fill-opacity:1;fill-rule:evenodd;stroke:#f5c278;stroke-width:1.92592871;stroke-linecap:round;stroke-linejoin:round;stroke-miterlimit:4;stroke-dasharray:none;stroke-opacity:1"
         d="M 295.18026,454.49371 L 325.47275,454.69498"
         id="path14800"
         sodipodi:nodetypes="cc" />
      <path
         sodipodi:nodetypes="cc"
         id="path14802"
         d="M 295.04376,465.37635 L 325.48297,465.57241"
         style="fill:#ffc97c;fill-opacity:1;fill-rule:evenodd;stroke:#f5c278;stroke-width:1.90547228;stroke-linecap:round;stroke-linejoin:round;stroke-miterlimit:4;stroke-dasharray:none;stroke-opacity:1" />
      <path
         style="fill:#ffc97c;fill-opacity:1;fill-rule:evenodd;stroke:#f5c278;stroke-width:1.90547228;stroke-linecap:round;stroke-linejoin:round;stroke-miterlimit:4;stroke-dasharray:none;stroke-opacity:1"
         d="M 295.04376,475.38505 L 325.48297,475.58111"
         id="path14804"
         sodipodi:nodetypes="cc" />
      <path
         sodipodi:nodetypes="cc"
         id="path14806"
         d="M 295.04376,485.57249 L 325.48297,485.76855"
         style="fill:#ffc97c;fill-opacity:1;fill-rule:evenodd;stroke:#f5c278;stroke-width:1.90547228;stroke-linecap:round;stroke-linejoin:round;stroke-miterlimit:4;stroke-dasharray:none;stroke-opacity:1" />
      <path
         style="fill:#ffc97c;fill-opacity:1;fill-rule:evenodd;stroke:#f5c278;stroke-width:1.90547228;stroke-linecap:round;stroke-linejoin:round;stroke-miterlimit:4;stroke-dasharray:none;stroke-opacity:1"
         d="M 295.04376,494.86628 L 325.48297,495.06234"
         id="path14808"
         sodipodi:nodetypes="cc" />
      <path
         sodipodi:nodetypes="cc"
         id="path14810"
         d="M 294.91924,503.4138 L 325.48123,503.60979"
         style="fill:#ffc97c;fill-opacity:1;fill-rule:evenodd;stroke:#f5c278;stroke-width:1.90896547;stroke-linecap:round;stroke-linejoin:round;stroke-miterlimit:4;stroke-dasharray:none;stroke-opacity:1" />
      <path
         style="fill:#ffc97c;fill-opacity:1;fill-rule:evenodd;stroke:#f5c278;stroke-width:1.90896547;stroke-linecap:round;stroke-linejoin:round;stroke-miterlimit:4;stroke-dasharray:none;stroke-opacity:1"
         d="M 294.91924,511.81093 L 325.48123,512.00692"
         id="path14812"
         sodipodi:nodetypes="cc" />
      <path
         sodipodi:nodetypes="cc"
         id="path14814"
         d="M 294.91924,519.85072 L 325.48123,520.04671"
         style="fill:#ffc97c;fill-opacity:1;fill-rule:evenodd;stroke:#f5c278;stroke-width:1.90896547;stroke-linecap:round;stroke-linejoin:round;stroke-miterlimit:4;stroke-dasharray:none;stroke-opacity:1" />
      <path
         style="fill:#ffc97c;fill-opacity:1;fill-rule:evenodd;stroke:#f5c278;stroke-width:1.90896547;stroke-linecap:round;stroke-linejoin:round;stroke-miterlimit:4;stroke-dasharray:none;stroke-opacity:1"
         d="M 294.91924,527.89052 L 325.48123,528.08651"
         id="path14816"
         sodipodi:nodetypes="cc" />
      <path
         sodipodi:nodetypes="cc"
         id="path14818"
         d="M 294.91924,534.32235 L 325.48123,534.51834"
         style="fill:#ffc97c;fill-opacity:1;fill-rule:evenodd;stroke:#f5c278;stroke-width:1.90896547;stroke-linecap:round;stroke-linejoin:round;stroke-miterlimit:4;stroke-dasharray:none;stroke-opacity:1" />
      <path
         style="fill:#ffc97c;fill-opacity:1;fill-rule:evenodd;stroke:#f5c278;stroke-width:1.90896547;stroke-linecap:round;stroke-linejoin:round;stroke-miterlimit:4;stroke-dasharray:none;stroke-opacity:1"
         d="M 294.91924,540.75419 L 325.48123,540.95018"
         id="path14820"
         sodipodi:nodetypes="cc" />
      <path
         sodipodi:nodetypes="cc"
         id="path14822"
         d="M 294.91924,547.18603 L 325.48123,547.38202"
         style="fill:#ffc97c;fill-opacity:1;fill-rule:evenodd;stroke:#f5c278;stroke-width:1.90896547;stroke-linecap:round;stroke-linejoin:round;stroke-miterlimit:4;stroke-dasharray:none;stroke-opacity:1" />
      <path
         sodipodi:nodetypes="ccssssc"
         id="path15827"
         d="M 289.10714,691.82647 L 330.71429,691.82647 C 334.47303,690.31848 339.24342,684.34014 345.53572,691.82647 C 351.99159,699.50741 344.03693,718.9359 327.32143,726.6479 C 309.15245,735.03049 301.77263,730.55771 292.5,726.46933 C 278.64275,720.35955 272.23134,707.03907 272.12603,695.99857 C 272.0501,688.03823 280.15521,685.87446 289.10714,691.82647 z "
         style="fill:#14130e;fill-opacity:1;fill-rule:evenodd;stroke:#000000;stroke-width:1px;stroke-linecap:butt;stroke-linejoin:miter;stroke-opacity:1" />
      <path
         sodipodi:nodetypes="ccccsccc"
         id="path16802"
         d="M 362.67857,671.6479 L 388.75,620.75504 L 391.42857,621.6479 L 367.32143,671.6479 C 367.46095,672.34549 362.82083,675.7074 356.07143,680.21932 C 348.69474,685.15058 341.60714,696.11218 341.60714,696.11218 L 339.32801,693.84822 C 346.45102,685.8253 353.47664,677.37058 362.67857,671.6479 z "
         style="fill:#fffee2;fill-opacity:1;fill-rule:evenodd;stroke:#000000;stroke-width:0.60000002;stroke-linecap:butt;stroke-linejoin:miter;stroke-miterlimit:4;stroke-dasharray:none;stroke-opacity:1" />
      <path
         transform="matrix(1.0793651,0,0,1.0793651,-27.060659,-55.777046)"
         d="M 343.21429 699.41577 A 5.625 5.625 0 1 1  331.96429,699.41577 A 5.625 5.625 0 1 1  343.21429 699.41577 z"
         sodipodi:ry="5.625"
         sodipodi:rx="5.625"
         sodipodi:cy="699.41577"
         sodipodi:cx="337.58929"
         id="path15829"
         style="opacity:1;fill:#ce8127;fill-opacity:1;fill-rule:evenodd;stroke:none;stroke-width:0.80000001;stroke-linecap:round;stroke-linejoin:round;stroke-miterlimit:4;stroke-dasharray:none;stroke-dashoffset:0;stroke-opacity:1"
         sodipodi:type="arc" />
      <path
         sodipodi:type="arc"
         style="opacity:1;fill:#ce8127;fill-opacity:1;fill-rule:evenodd;stroke:none;stroke-width:0.80000001;stroke-linecap:round;stroke-linejoin:round;stroke-miterlimit:4;stroke-dasharray:none;stroke-dashoffset:0;stroke-opacity:1"
         id="path16800"
         sodipodi:cx="337.58929"
         sodipodi:cy="699.41577"
         sodipodi:rx="5.625"
         sodipodi:ry="5.625"
         d="M 343.21429 699.41577 A 5.625 5.625 0 1 1  331.96429,699.41577 A 5.625 5.625 0 1 1  343.21429 699.41577 z"
         transform="matrix(0.3492064,0,0,0.3492064,191.39739,482.58606)" />
      <path
         sodipodi:nodetypes="cssss"
         id="path16804"
         d="M 388.50393,620.7455 C 390.02504,615.53096 395.06369,605.36171 398.40356,600.85777 C 401.74345,596.35384 403.38455,597.51519 401.86343,602.72974 C 400.34232,607.94428 395.65899,617.21203 392.31911,621.71596 C 388.97923,626.2199 386.98281,625.96005 388.50393,620.7455 z "
         style="fill:#d3ba81;fill-opacity:1;fill-rule:evenodd;stroke:#000000;stroke-width:1.02935743px;stroke-linecap:butt;stroke-linejoin:miter;stroke-opacity:1" />
      <path
         sodipodi:type="arc"
         style="opacity:1;fill:#beb5ac;fill-opacity:1;fill-rule:evenodd;stroke:#000000;stroke-width:0.60000002;stroke-linecap:round;stroke-linejoin:round;stroke-miterlimit:4;stroke-dasharray:none;stroke-dashoffset:0;stroke-opacity:1"
         id="path17777"
         sodipodi:cx="372.67856"
         sodipodi:cy="735.2193"
         sodipodi:rx="12.321428"
         sodipodi:ry="12.321428"
         d="M 384.99999 735.2193 A 12.321428 12.321428 0 1 1  360.35713,735.2193 A 12.321428 12.321428 0 1 1  384.99999 735.2193 z"
         transform="matrix(0.9717035,0,0,0.9717035,30.545517,-2.9458315)" />
      <path
         transform="matrix(0.9717035,0,0,0.9717035,7.8669454,17.23274)"
         d="M 384.99999 735.2193 A 12.321428 12.321428 0 1 1  360.35713,735.2193 A 12.321428 12.321428 0 1 1  384.99999 735.2193 z"
         sodipodi:ry="12.321428"
         sodipodi:rx="12.321428"
         sodipodi:cy="735.2193"
         sodipodi:cx="372.67856"
         id="path16806"
         style="opacity:1;fill:#beb5ac;fill-opacity:1;fill-rule:evenodd;stroke:#000000;stroke-width:0.60000002;stroke-linecap:round;stroke-linejoin:round;stroke-miterlimit:4;stroke-dasharray:none;stroke-dashoffset:0;stroke-opacity:1"
         sodipodi:type="arc" />
      <path
         sodipodi:type="arc"
         style="opacity:1;fill:#beb5ac;fill-opacity:1;fill-rule:evenodd;stroke:#000000;stroke-width:0.21769258;stroke-linecap:round;stroke-linejoin:round;stroke-miterlimit:4;stroke-dasharray:none;stroke-dashoffset:0;stroke-opacity:1;filter:url(#filter18958)"
         id="path18962"
         sodipodi:cx="372.14285"
         sodipodi:cy="733.43359"
         sodipodi:rx="5.3571429"
         sodipodi:ry="5.3571429"
         d="M 377.5 733.43359 A 5.3571429 5.3571429 0 1 1  366.78571,733.43359 A 5.3571429 5.3571429 0 1 1  377.5 733.43359 z"
         transform="matrix(1.0473485,0,0,1.0473485,3.1831712,-56.780541)" />
      <path
         transform="matrix(1.0473485,0,0,1.0473485,-19.852543,-36.066254)"
         d="M 377.5 733.43359 A 5.3571429 5.3571429 0 1 1  366.78571,733.43359 A 5.3571429 5.3571429 0 1 1  377.5 733.43359 z"
         sodipodi:ry="5.3571429"
         sodipodi:rx="5.3571429"
         sodipodi:cy="733.43359"
         sodipodi:cx="372.14285"
         id="path17779"
         style="opacity:1;fill:#beb5ac;fill-opacity:1;fill-rule:evenodd;stroke:#000000;stroke-width:0.21769258;stroke-linecap:round;stroke-linejoin:round;stroke-miterlimit:4;stroke-dasharray:none;stroke-dashoffset:0;stroke-opacity:1;filter:url(#filter18958)"
         sodipodi:type="arc" />
      <path
         sodipodi:nodetypes="ccccc"
         id="path19933"
         d="M 286.25198,649.81639 C 285.99504,653.01521 286.13125,656.21402 286.88332,659.41284 C 301.78307,660.43337 316.68282,659.48705 331.58257,658.90777 C 332.29148,655.21605 331.95799,651.78493 331.33004,648.42743 C 316.30402,648.6035 301.278,648.37625 286.25198,649.81639 z "
         style="fill:#d5c9cb;fill-opacity:1;fill-rule:evenodd;stroke:#000000;stroke-width:1px;stroke-linecap:butt;stroke-linejoin:miter;stroke-opacity:1" />
      <rect
         rx="8.2593193"
         ry="7.6912107"
         y="631.01349"
         x="283.73779"
         height="15.382421"
         width="51.36911"
         id="rect19937"
         style="opacity:1;fill:#d5c9cb;fill-opacity:1;fill-rule:evenodd;stroke:#000000;stroke-width:0.2504054;stroke-linecap:round;stroke-linejoin:round;stroke-miterlimit:4;stroke-dasharray:none;stroke-dashoffset:0;stroke-opacity:1" />
      <rect
         style="opacity:1;fill:#d5c9cb;fill-opacity:1;fill-rule:evenodd;stroke:#000000;stroke-width:0.2504054;stroke-linecap:round;stroke-linejoin:round;stroke-miterlimit:4;stroke-dasharray:none;stroke-dashoffset:0;stroke-opacity:1"
         id="rect19939"
         width="51.36911"
         height="15.382421"
         x="284.36914"
         y="594.14294"
         ry="7.6912107"
         rx="8.2593193" />
      <rect
         rx="8.2593193"
         ry="7.6912107"
         y="558.02997"
         x="284.11661"
         height="15.382421"
         width="51.36911"
         id="rect19941"
         style="opacity:1;fill:#d5c9cb;fill-opacity:1;fill-rule:evenodd;stroke:#000000;stroke-width:0.2504054;stroke-linecap:round;stroke-linejoin:round;stroke-miterlimit:4;stroke-dasharray:none;stroke-dashoffset:0;stroke-opacity:1" />
      <path
         sodipodi:nodetypes="ccc"
         id="path19943"
         d="M 295.72216,190.19698 L 297.74246,234.6437 L 293.44931,695.27326"
         style="fill:none;fill-opacity:1;fill-rule:evenodd;stroke:#f8993e;stroke-width:1px;stroke-linecap:round;stroke-linejoin:round;stroke-opacity:1" />
      <path
         sodipodi:nodetypes="ccc"
         id="path19945"
         d="M 301.02546,163.42794 L 301.78307,234.39116 L 299.25769,694.76818"
         style="fill:none;fill-rule:evenodd;stroke:#f8993e;stroke-width:1px;stroke-linecap:round;stroke-linejoin:round;stroke-opacity:1" />
      <path
         id="path19947"
         d="M 305.31861,141.70966 L 307.59145,234.39116 L 306.07622,694.76818"
         style="fill:none;fill-rule:evenodd;stroke:#f8993e;stroke-width:1px;stroke-linecap:round;stroke-linejoin:round;stroke-opacity:1" />
      <path
         id="path19949"
         d="M 318.70313,142.21474 L 313.65237,234.6437 L 312.89475,693.75803"
         style="fill:none;fill-rule:evenodd;stroke:#f8993e;stroke-width:1px;stroke-linecap:round;stroke-linejoin:round;stroke-opacity:1" />
      <path
         id="path19953"
         d="M 323.24881,165.70078 L 318.95567,234.6437 L 319.96582,694.76818"
         style="fill:none;fill-rule:evenodd;stroke:#f8993e;stroke-width:1px;stroke-linecap:round;stroke-linejoin:round;stroke-opacity:1" />
      <path
         sodipodi:nodetypes="ccc"
         id="path19955"
         d="M 327.54196,188.42921 L 322.74374,233.88608 L 326.78435,694.51564"
         style="fill:none;fill-rule:evenodd;stroke:#f8993e;stroke-width:1px;stroke-linecap:round;stroke-linejoin:round;stroke-opacity:1" />
      <path
         transform="matrix(1.1043841,0,0,1.1043841,-20.616238,-66.787358)"
         d="M 298.0357 184.77289 A 4.7321429 4.7321429 0 1 1  288.57142,184.77289 A 4.7321429 4.7321429 0 1 1  298.0357 184.77289 z"
         sodipodi:ry="4.7321429"
         sodipodi:rx="4.7321429"
         sodipodi:cy="184.77289"
         sodipodi:cx="293.30356"
         id="path15813"
         style="opacity:1;fill:#f8eed3;fill-opacity:1;fill-rule:evenodd;stroke:#221515;stroke-width:0.80000001;stroke-linecap:round;stroke-linejoin:round;stroke-miterlimit:4;stroke-dasharray:none;stroke-dashoffset:0;stroke-opacity:1"
         sodipodi:type="arc" />
      <path
         sodipodi:type="arc"
         style="opacity:1;fill:#f8eed3;fill-opacity:1;fill-rule:evenodd;stroke:#221515;stroke-width:0.80000001;stroke-linecap:round;stroke-linejoin:round;stroke-miterlimit:4;stroke-dasharray:none;stroke-dashoffset:0;stroke-opacity:1"
         id="path15815"
         sodipodi:cx="293.30356"
         sodipodi:cy="184.77289"
         sodipodi:rx="4.7321429"
         sodipodi:ry="4.7321429"
         d="M 298.0357 184.77289 A 4.7321429 4.7321429 0 1 1  288.57142,184.77289 A 4.7321429 4.7321429 0 1 1  298.0357 184.77289 z"
         transform="matrix(1.1043841,0,0,1.1043841,-3.4733808,-66.608787)" />
      <path
         transform="matrix(1.1043841,0,0,1.1043841,0.9909049,-43.573073)"
         d="M 298.0357 184.77289 A 4.7321429 4.7321429 0 1 1  288.57142,184.77289 A 4.7321429 4.7321429 0 1 1  298.0357 184.77289 z"
         sodipodi:ry="4.7321429"
         sodipodi:rx="4.7321429"
         sodipodi:cy="184.77289"
         sodipodi:cx="293.30356"
         id="path15817"
         style="opacity:1;fill:#f8eed3;fill-opacity:1;fill-rule:evenodd;stroke:#221515;stroke-width:0.80000001;stroke-linecap:round;stroke-linejoin:round;stroke-miterlimit:4;stroke-dasharray:none;stroke-dashoffset:0;stroke-opacity:1"
         sodipodi:type="arc" />
      <path
         sodipodi:type="arc"
         style="opacity:1;fill:#f8eed3;fill-opacity:1;fill-rule:evenodd;stroke:#221515;stroke-width:0.80000001;stroke-linecap:round;stroke-linejoin:round;stroke-miterlimit:4;stroke-dasharray:none;stroke-dashoffset:0;stroke-opacity:1"
         id="path15811"
         sodipodi:cx="293.30356"
         sodipodi:cy="184.77289"
         sodipodi:rx="4.7321429"
         sodipodi:ry="4.7321429"
         d="M 298.0357 184.77289 A 4.7321429 4.7321429 0 1 1  288.57142,184.77289 A 4.7321429 4.7321429 0 1 1  298.0357 184.77289 z"
         transform="matrix(1.1043841,0,0,1.1043841,-25.259095,-43.751644)" />
      <path
         transform="matrix(1.1043841,0,0,1.1043841,-30.794809,-18.930215)"
         d="M 298.0357 184.77289 A 4.7321429 4.7321429 0 1 1  288.57142,184.77289 A 4.7321429 4.7321429 0 1 1  298.0357 184.77289 z"
         sodipodi:ry="4.7321429"
         sodipodi:rx="4.7321429"
         sodipodi:cy="184.77289"
         sodipodi:cx="293.30356"
         id="path14840"
         style="opacity:1;fill:#f8eed3;fill-opacity:1;fill-rule:evenodd;stroke:#221515;stroke-width:0.80000001;stroke-linecap:round;stroke-linejoin:round;stroke-miterlimit:4;stroke-dasharray:none;stroke-dashoffset:0;stroke-opacity:1"
         sodipodi:type="arc" />
      <path
         sodipodi:type="arc"
         style="opacity:1;fill:#f8eed3;fill-opacity:1;fill-rule:evenodd;stroke:#221515;stroke-width:0.80000001;stroke-linecap:round;stroke-linejoin:round;stroke-miterlimit:4;stroke-dasharray:none;stroke-dashoffset:0;stroke-opacity:1"
         id="path15819"
         sodipodi:cx="293.30356"
         sodipodi:cy="184.77289"
         sodipodi:rx="4.7321429"
         sodipodi:ry="4.7321429"
         d="M 298.0357 184.77289 A 4.7321429 4.7321429 0 1 1  288.57142,184.77289 A 4.7321429 4.7321429 0 1 1  298.0357 184.77289 z"
         transform="matrix(1.1043841,0,0,1.1043841,5.8123335,-18.394502)" />
      <rect
         ry="6.1871843"
         rx="1.1882515"
         y="693.50549"
         x="288.14603"
         height="6.1871843"
         width="43.057751"
         id="rect23833"
         style="opacity:1;fill:#666666;fill-opacity:1;fill-rule:evenodd;stroke:#181614;stroke-width:0.228;stroke-linecap:round;stroke-linejoin:round;stroke-miterlimit:4;stroke-dasharray:none;stroke-dashoffset:0;stroke-opacity:1" />
    </g>
  </g>
</svg>
